<?xml version="1.0" encoding="utf-8" standalone="no"?>
<!DOCTYPE svg PUBLIC "-//W3C//DTD SVG 1.1//EN"
  "http://www.w3.org/Graphics/SVG/1.1/DTD/svg11.dtd">
<!-- Created with matplotlib (https://matplotlib.org/) -->
<svg height="432pt" version="1.1" viewBox="0 0 720 432" width="720pt" xmlns="http://www.w3.org/2000/svg" xmlns:xlink="http://www.w3.org/1999/xlink">
 <defs>
  <style type="text/css">
*{stroke-linecap:butt;stroke-linejoin:round;}
  </style>
 </defs>
 <g id="figure_1">
  <g id="patch_1">
   <path d="M 0 432 
L 720 432 
L 720 0 
L 0 0 
z
" style="fill:#ffffff;"/>
  </g>
  <g id="axes_1">
   <g id="patch_2">
    <path d="M 67.102 376.148 
L 704.448 376.148 
L 704.448 32.552 
L 67.102 32.552 
z
" style="fill:#eaeaf2;"/>
   </g>
   <g id="matplotlib.axis_1">
    <g id="xtick_1">
     <g id="line2d_1">
      <path clip-path="url(#p2353e3e344)" d="M 160.450657 376.148 
L 160.450657 32.552 
" style="fill:none;stroke:#ffffff;stroke-linecap:round;stroke-width:0.8;"/>
     </g>
     <g id="text_1">
      <!-- 2 -->
      <defs>
       <path d="M 19.1875 8.296875 
L 53.609375 8.296875 
L 53.609375 0 
L 7.328125 0 
L 7.328125 8.296875 
Q 12.9375 14.109375 22.625 23.890625 
Q 32.328125 33.6875 34.8125 36.53125 
Q 39.546875 41.84375 41.421875 45.53125 
Q 43.3125 49.21875 43.3125 52.78125 
Q 43.3125 58.59375 39.234375 62.25 
Q 35.15625 65.921875 28.609375 65.921875 
Q 23.96875 65.921875 18.8125 64.3125 
Q 13.671875 62.703125 7.8125 59.421875 
L 7.8125 69.390625 
Q 13.765625 71.78125 18.9375 73 
Q 24.125 74.21875 28.421875 74.21875 
Q 39.75 74.21875 46.484375 68.546875 
Q 53.21875 62.890625 53.21875 53.421875 
Q 53.21875 48.921875 51.53125 44.890625 
Q 49.859375 40.875 45.40625 35.40625 
Q 44.1875 33.984375 37.640625 27.21875 
Q 31.109375 20.453125 19.1875 8.296875 
z
" id="DejaVuSans-50"/>
      </defs>
      <g style="fill:#262626;" transform="translate(156.251407 394.477937)scale(0.132 -0.132)">
       <use xlink:href="#DejaVuSans-50"/>
      </g>
     </g>
    </g>
    <g id="xtick_2">
     <g id="line2d_2">
      <path clip-path="url(#p2353e3e344)" d="M 289.207424 376.148 
L 289.207424 32.552 
" style="fill:none;stroke:#ffffff;stroke-linecap:round;stroke-width:0.8;"/>
     </g>
     <g id="text_2">
      <!-- 4 -->
      <defs>
       <path d="M 37.796875 64.3125 
L 12.890625 25.390625 
L 37.796875 25.390625 
z
M 35.203125 72.90625 
L 47.609375 72.90625 
L 47.609375 25.390625 
L 58.015625 25.390625 
L 58.015625 17.1875 
L 47.609375 17.1875 
L 47.609375 0 
L 37.796875 0 
L 37.796875 17.1875 
L 4.890625 17.1875 
L 4.890625 26.703125 
z
" id="DejaVuSans-52"/>
      </defs>
      <g style="fill:#262626;" transform="translate(285.008174 394.477937)scale(0.132 -0.132)">
       <use xlink:href="#DejaVuSans-52"/>
      </g>
     </g>
    </g>
    <g id="xtick_3">
     <g id="line2d_3">
      <path clip-path="url(#p2353e3e344)" d="M 417.964192 376.148 
L 417.964192 32.552 
" style="fill:none;stroke:#ffffff;stroke-linecap:round;stroke-width:0.8;"/>
     </g>
     <g id="text_3">
      <!-- 6 -->
      <defs>
       <path d="M 33.015625 40.375 
Q 26.375 40.375 22.484375 35.828125 
Q 18.609375 31.296875 18.609375 23.390625 
Q 18.609375 15.53125 22.484375 10.953125 
Q 26.375 6.390625 33.015625 6.390625 
Q 39.65625 6.390625 43.53125 10.953125 
Q 47.40625 15.53125 47.40625 23.390625 
Q 47.40625 31.296875 43.53125 35.828125 
Q 39.65625 40.375 33.015625 40.375 
z
M 52.59375 71.296875 
L 52.59375 62.3125 
Q 48.875 64.0625 45.09375 64.984375 
Q 41.3125 65.921875 37.59375 65.921875 
Q 27.828125 65.921875 22.671875 59.328125 
Q 17.53125 52.734375 16.796875 39.40625 
Q 19.671875 43.65625 24.015625 45.921875 
Q 28.375 48.1875 33.59375 48.1875 
Q 44.578125 48.1875 50.953125 41.515625 
Q 57.328125 34.859375 57.328125 23.390625 
Q 57.328125 12.15625 50.6875 5.359375 
Q 44.046875 -1.421875 33.015625 -1.421875 
Q 20.359375 -1.421875 13.671875 8.265625 
Q 6.984375 17.96875 6.984375 36.375 
Q 6.984375 53.65625 15.1875 63.9375 
Q 23.390625 74.21875 37.203125 74.21875 
Q 40.921875 74.21875 44.703125 73.484375 
Q 48.484375 72.75 52.59375 71.296875 
z
" id="DejaVuSans-54"/>
      </defs>
      <g style="fill:#262626;" transform="translate(413.764942 394.477937)scale(0.132 -0.132)">
       <use xlink:href="#DejaVuSans-54"/>
      </g>
     </g>
    </g>
    <g id="xtick_4">
     <g id="line2d_4">
      <path clip-path="url(#p2353e3e344)" d="M 546.72096 376.148 
L 546.72096 32.552 
" style="fill:none;stroke:#ffffff;stroke-linecap:round;stroke-width:0.8;"/>
     </g>
     <g id="text_4">
      <!-- 8 -->
      <defs>
       <path d="M 31.78125 34.625 
Q 24.75 34.625 20.71875 30.859375 
Q 16.703125 27.09375 16.703125 20.515625 
Q 16.703125 13.921875 20.71875 10.15625 
Q 24.75 6.390625 31.78125 6.390625 
Q 38.8125 6.390625 42.859375 10.171875 
Q 46.921875 13.96875 46.921875 20.515625 
Q 46.921875 27.09375 42.890625 30.859375 
Q 38.875 34.625 31.78125 34.625 
z
M 21.921875 38.8125 
Q 15.578125 40.375 12.03125 44.71875 
Q 8.5 49.078125 8.5 55.328125 
Q 8.5 64.0625 14.71875 69.140625 
Q 20.953125 74.21875 31.78125 74.21875 
Q 42.671875 74.21875 48.875 69.140625 
Q 55.078125 64.0625 55.078125 55.328125 
Q 55.078125 49.078125 51.53125 44.71875 
Q 48 40.375 41.703125 38.8125 
Q 48.828125 37.15625 52.796875 32.3125 
Q 56.78125 27.484375 56.78125 20.515625 
Q 56.78125 9.90625 50.3125 4.234375 
Q 43.84375 -1.421875 31.78125 -1.421875 
Q 19.734375 -1.421875 13.25 4.234375 
Q 6.78125 9.90625 6.78125 20.515625 
Q 6.78125 27.484375 10.78125 32.3125 
Q 14.796875 37.15625 21.921875 38.8125 
z
M 18.3125 54.390625 
Q 18.3125 48.734375 21.84375 45.5625 
Q 25.390625 42.390625 31.78125 42.390625 
Q 38.140625 42.390625 41.71875 45.5625 
Q 45.3125 48.734375 45.3125 54.390625 
Q 45.3125 60.0625 41.71875 63.234375 
Q 38.140625 66.40625 31.78125 66.40625 
Q 25.390625 66.40625 21.84375 63.234375 
Q 18.3125 60.0625 18.3125 54.390625 
z
" id="DejaVuSans-56"/>
      </defs>
      <g style="fill:#262626;" transform="translate(542.52171 394.477937)scale(0.132 -0.132)">
       <use xlink:href="#DejaVuSans-56"/>
      </g>
     </g>
    </g>
    <g id="xtick_5">
     <g id="line2d_5">
      <path clip-path="url(#p2353e3e344)" d="M 675.477727 376.148 
L 675.477727 32.552 
" style="fill:none;stroke:#ffffff;stroke-linecap:round;stroke-width:0.8;"/>
     </g>
     <g id="text_5">
      <!-- 10 -->
      <defs>
       <path d="M 12.40625 8.296875 
L 28.515625 8.296875 
L 28.515625 63.921875 
L 10.984375 60.40625 
L 10.984375 69.390625 
L 28.421875 72.90625 
L 38.28125 72.90625 
L 38.28125 8.296875 
L 54.390625 8.296875 
L 54.390625 0 
L 12.40625 0 
z
" id="DejaVuSans-49"/>
       <path d="M 31.78125 66.40625 
Q 24.171875 66.40625 20.328125 58.90625 
Q 16.5 51.421875 16.5 36.375 
Q 16.5 21.390625 20.328125 13.890625 
Q 24.171875 6.390625 31.78125 6.390625 
Q 39.453125 6.390625 43.28125 13.890625 
Q 47.125 21.390625 47.125 36.375 
Q 47.125 51.421875 43.28125 58.90625 
Q 39.453125 66.40625 31.78125 66.40625 
z
M 31.78125 74.21875 
Q 44.046875 74.21875 50.515625 64.515625 
Q 56.984375 54.828125 56.984375 36.375 
Q 56.984375 17.96875 50.515625 8.265625 
Q 44.046875 -1.421875 31.78125 -1.421875 
Q 19.53125 -1.421875 13.0625 8.265625 
Q 6.59375 17.96875 6.59375 36.375 
Q 6.59375 54.828125 13.0625 64.515625 
Q 19.53125 74.21875 31.78125 74.21875 
z
" id="DejaVuSans-48"/>
      </defs>
      <g style="fill:#262626;" transform="translate(667.079227 394.477937)scale(0.132 -0.132)">
       <use xlink:href="#DejaVuSans-49"/>
       <use x="63.623047" xlink:href="#DejaVuSans-48"/>
      </g>
     </g>
    </g>
    <g id="text_6">
     <!-- Function Depth -->
     <defs>
      <path d="M 9.8125 72.90625 
L 51.703125 72.90625 
L 51.703125 64.59375 
L 19.671875 64.59375 
L 19.671875 43.109375 
L 48.578125 43.109375 
L 48.578125 34.8125 
L 19.671875 34.8125 
L 19.671875 0 
L 9.8125 0 
z
" id="DejaVuSans-70"/>
      <path d="M 8.5 21.578125 
L 8.5 54.6875 
L 17.484375 54.6875 
L 17.484375 21.921875 
Q 17.484375 14.15625 20.5 10.265625 
Q 23.53125 6.390625 29.59375 6.390625 
Q 36.859375 6.390625 41.078125 11.03125 
Q 45.3125 15.671875 45.3125 23.6875 
L 45.3125 54.6875 
L 54.296875 54.6875 
L 54.296875 0 
L 45.3125 0 
L 45.3125 8.40625 
Q 42.046875 3.421875 37.71875 1 
Q 33.40625 -1.421875 27.6875 -1.421875 
Q 18.265625 -1.421875 13.375 4.4375 
Q 8.5 10.296875 8.5 21.578125 
z
M 31.109375 56 
z
" id="DejaVuSans-117"/>
      <path d="M 54.890625 33.015625 
L 54.890625 0 
L 45.90625 0 
L 45.90625 32.71875 
Q 45.90625 40.484375 42.875 44.328125 
Q 39.84375 48.1875 33.796875 48.1875 
Q 26.515625 48.1875 22.3125 43.546875 
Q 18.109375 38.921875 18.109375 30.90625 
L 18.109375 0 
L 9.078125 0 
L 9.078125 54.6875 
L 18.109375 54.6875 
L 18.109375 46.1875 
Q 21.34375 51.125 25.703125 53.5625 
Q 30.078125 56 35.796875 56 
Q 45.21875 56 50.046875 50.171875 
Q 54.890625 44.34375 54.890625 33.015625 
z
" id="DejaVuSans-110"/>
      <path d="M 48.78125 52.59375 
L 48.78125 44.1875 
Q 44.96875 46.296875 41.140625 47.34375 
Q 37.3125 48.390625 33.40625 48.390625 
Q 24.65625 48.390625 19.8125 42.84375 
Q 14.984375 37.3125 14.984375 27.296875 
Q 14.984375 17.28125 19.8125 11.734375 
Q 24.65625 6.203125 33.40625 6.203125 
Q 37.3125 6.203125 41.140625 7.25 
Q 44.96875 8.296875 48.78125 10.40625 
L 48.78125 2.09375 
Q 45.015625 0.34375 40.984375 -0.53125 
Q 36.96875 -1.421875 32.421875 -1.421875 
Q 20.0625 -1.421875 12.78125 6.34375 
Q 5.515625 14.109375 5.515625 27.296875 
Q 5.515625 40.671875 12.859375 48.328125 
Q 20.21875 56 33.015625 56 
Q 37.15625 56 41.109375 55.140625 
Q 45.0625 54.296875 48.78125 52.59375 
z
" id="DejaVuSans-99"/>
      <path d="M 18.3125 70.21875 
L 18.3125 54.6875 
L 36.8125 54.6875 
L 36.8125 47.703125 
L 18.3125 47.703125 
L 18.3125 18.015625 
Q 18.3125 11.328125 20.140625 9.421875 
Q 21.96875 7.515625 27.59375 7.515625 
L 36.8125 7.515625 
L 36.8125 0 
L 27.59375 0 
Q 17.1875 0 13.234375 3.875 
Q 9.28125 7.765625 9.28125 18.015625 
L 9.28125 47.703125 
L 2.6875 47.703125 
L 2.6875 54.6875 
L 9.28125 54.6875 
L 9.28125 70.21875 
z
" id="DejaVuSans-116"/>
      <path d="M 9.421875 54.6875 
L 18.40625 54.6875 
L 18.40625 0 
L 9.421875 0 
z
M 9.421875 75.984375 
L 18.40625 75.984375 
L 18.40625 64.59375 
L 9.421875 64.59375 
z
" id="DejaVuSans-105"/>
      <path d="M 30.609375 48.390625 
Q 23.390625 48.390625 19.1875 42.75 
Q 14.984375 37.109375 14.984375 27.296875 
Q 14.984375 17.484375 19.15625 11.84375 
Q 23.34375 6.203125 30.609375 6.203125 
Q 37.796875 6.203125 41.984375 11.859375 
Q 46.1875 17.53125 46.1875 27.296875 
Q 46.1875 37.015625 41.984375 42.703125 
Q 37.796875 48.390625 30.609375 48.390625 
z
M 30.609375 56 
Q 42.328125 56 49.015625 48.375 
Q 55.71875 40.765625 55.71875 27.296875 
Q 55.71875 13.875 49.015625 6.21875 
Q 42.328125 -1.421875 30.609375 -1.421875 
Q 18.84375 -1.421875 12.171875 6.21875 
Q 5.515625 13.875 5.515625 27.296875 
Q 5.515625 40.765625 12.171875 48.375 
Q 18.84375 56 30.609375 56 
z
" id="DejaVuSans-111"/>
      <path id="DejaVuSans-32"/>
      <path d="M 19.671875 64.796875 
L 19.671875 8.109375 
L 31.59375 8.109375 
Q 46.6875 8.109375 53.6875 14.9375 
Q 60.6875 21.78125 60.6875 36.53125 
Q 60.6875 51.171875 53.6875 57.984375 
Q 46.6875 64.796875 31.59375 64.796875 
z
M 9.8125 72.90625 
L 30.078125 72.90625 
Q 51.265625 72.90625 61.171875 64.09375 
Q 71.09375 55.28125 71.09375 36.53125 
Q 71.09375 17.671875 61.125 8.828125 
Q 51.171875 0 30.078125 0 
L 9.8125 0 
z
" id="DejaVuSans-68"/>
      <path d="M 56.203125 29.59375 
L 56.203125 25.203125 
L 14.890625 25.203125 
Q 15.484375 15.921875 20.484375 11.0625 
Q 25.484375 6.203125 34.421875 6.203125 
Q 39.59375 6.203125 44.453125 7.46875 
Q 49.3125 8.734375 54.109375 11.28125 
L 54.109375 2.78125 
Q 49.265625 0.734375 44.1875 -0.34375 
Q 39.109375 -1.421875 33.890625 -1.421875 
Q 20.796875 -1.421875 13.15625 6.1875 
Q 5.515625 13.8125 5.515625 26.8125 
Q 5.515625 40.234375 12.765625 48.109375 
Q 20.015625 56 32.328125 56 
Q 43.359375 56 49.78125 48.890625 
Q 56.203125 41.796875 56.203125 29.59375 
z
M 47.21875 32.234375 
Q 47.125 39.59375 43.09375 43.984375 
Q 39.0625 48.390625 32.421875 48.390625 
Q 24.90625 48.390625 20.390625 44.140625 
Q 15.875 39.890625 15.1875 32.171875 
z
" id="DejaVuSans-101"/>
      <path d="M 18.109375 8.203125 
L 18.109375 -20.796875 
L 9.078125 -20.796875 
L 9.078125 54.6875 
L 18.109375 54.6875 
L 18.109375 46.390625 
Q 20.953125 51.265625 25.265625 53.625 
Q 29.59375 56 35.59375 56 
Q 45.5625 56 51.78125 48.09375 
Q 58.015625 40.1875 58.015625 27.296875 
Q 58.015625 14.40625 51.78125 6.484375 
Q 45.5625 -1.421875 35.59375 -1.421875 
Q 29.59375 -1.421875 25.265625 0.953125 
Q 20.953125 3.328125 18.109375 8.203125 
z
M 48.6875 27.296875 
Q 48.6875 37.203125 44.609375 42.84375 
Q 40.53125 48.484375 33.40625 48.484375 
Q 26.265625 48.484375 22.1875 42.84375 
Q 18.109375 37.203125 18.109375 27.296875 
Q 18.109375 17.390625 22.1875 11.75 
Q 26.265625 6.109375 33.40625 6.109375 
Q 40.53125 6.109375 44.609375 11.75 
Q 48.6875 17.390625 48.6875 27.296875 
z
" id="DejaVuSans-112"/>
      <path d="M 54.890625 33.015625 
L 54.890625 0 
L 45.90625 0 
L 45.90625 32.71875 
Q 45.90625 40.484375 42.875 44.328125 
Q 39.84375 48.1875 33.796875 48.1875 
Q 26.515625 48.1875 22.3125 43.546875 
Q 18.109375 38.921875 18.109375 30.90625 
L 18.109375 0 
L 9.078125 0 
L 9.078125 75.984375 
L 18.109375 75.984375 
L 18.109375 46.1875 
Q 21.34375 51.125 25.703125 53.5625 
Q 30.078125 56 35.796875 56 
Q 45.21875 56 50.046875 50.171875 
Q 54.890625 44.34375 54.890625 33.015625 
z
" id="DejaVuSans-104"/>
     </defs>
     <g style="fill:#262626;" transform="translate(330.54425 412.164875)scale(0.144 -0.144)">
      <use xlink:href="#DejaVuSans-70"/>
      <use x="57.441406" xlink:href="#DejaVuSans-117"/>
      <use x="120.820312" xlink:href="#DejaVuSans-110"/>
      <use x="184.199219" xlink:href="#DejaVuSans-99"/>
      <use x="239.179688" xlink:href="#DejaVuSans-116"/>
      <use x="278.388672" xlink:href="#DejaVuSans-105"/>
      <use x="306.171875" xlink:href="#DejaVuSans-111"/>
      <use x="367.353516" xlink:href="#DejaVuSans-110"/>
      <use x="430.732422" xlink:href="#DejaVuSans-32"/>
      <use x="462.519531" xlink:href="#DejaVuSans-68"/>
      <use x="539.521484" xlink:href="#DejaVuSans-101"/>
      <use x="601.044922" xlink:href="#DejaVuSans-112"/>
      <use x="664.521484" xlink:href="#DejaVuSans-116"/>
      <use x="703.730469" xlink:href="#DejaVuSans-104"/>
     </g>
    </g>
   </g>
   <g id="matplotlib.axis_2">
    <g id="ytick_1">
     <g id="line2d_6">
      <path clip-path="url(#p2353e3e344)" d="M 67.102 368.975234 
L 704.448 368.975234 
" style="fill:none;stroke:#ffffff;stroke-linecap:round;stroke-width:0.8;"/>
     </g>
     <g id="text_7">
      <!-- 0 -->
      <g style="fill:#262626;" transform="translate(50.4035 373.990203)scale(0.132 -0.132)">
       <use xlink:href="#DejaVuSans-48"/>
      </g>
     </g>
    </g>
    <g id="ytick_2">
     <g id="line2d_7">
      <path clip-path="url(#p2353e3e344)" d="M 67.102 294.289639 
L 704.448 294.289639 
" style="fill:none;stroke:#ffffff;stroke-linecap:round;stroke-width:0.8;"/>
     </g>
     <g id="text_8">
      <!-- 200 -->
      <g style="fill:#262626;" transform="translate(33.6065 299.304607)scale(0.132 -0.132)">
       <use xlink:href="#DejaVuSans-50"/>
       <use x="63.623047" xlink:href="#DejaVuSans-48"/>
       <use x="127.246094" xlink:href="#DejaVuSans-48"/>
      </g>
     </g>
    </g>
    <g id="ytick_3">
     <g id="line2d_8">
      <path clip-path="url(#p2353e3e344)" d="M 67.102 219.604043 
L 704.448 219.604043 
" style="fill:none;stroke:#ffffff;stroke-linecap:round;stroke-width:0.8;"/>
     </g>
     <g id="text_9">
      <!-- 400 -->
      <g style="fill:#262626;" transform="translate(33.6065 224.619012)scale(0.132 -0.132)">
       <use xlink:href="#DejaVuSans-52"/>
       <use x="63.623047" xlink:href="#DejaVuSans-48"/>
       <use x="127.246094" xlink:href="#DejaVuSans-48"/>
      </g>
     </g>
    </g>
    <g id="ytick_4">
     <g id="line2d_9">
      <path clip-path="url(#p2353e3e344)" d="M 67.102 144.918447 
L 704.448 144.918447 
" style="fill:none;stroke:#ffffff;stroke-linecap:round;stroke-width:0.8;"/>
     </g>
     <g id="text_10">
      <!-- 600 -->
      <g style="fill:#262626;" transform="translate(33.6065 149.933416)scale(0.132 -0.132)">
       <use xlink:href="#DejaVuSans-54"/>
       <use x="63.623047" xlink:href="#DejaVuSans-48"/>
       <use x="127.246094" xlink:href="#DejaVuSans-48"/>
      </g>
     </g>
    </g>
    <g id="ytick_5">
     <g id="line2d_10">
      <path clip-path="url(#p2353e3e344)" d="M 67.102 70.232852 
L 704.448 70.232852 
" style="fill:none;stroke:#ffffff;stroke-linecap:round;stroke-width:0.8;"/>
     </g>
     <g id="text_11">
      <!-- 800 -->
      <g style="fill:#262626;" transform="translate(33.6065 75.24782)scale(0.132 -0.132)">
       <use xlink:href="#DejaVuSans-56"/>
       <use x="63.623047" xlink:href="#DejaVuSans-48"/>
       <use x="127.246094" xlink:href="#DejaVuSans-48"/>
      </g>
     </g>
    </g>
    <g id="text_12">
     <!-- Overhead (ns) -->
     <defs>
      <path d="M 39.40625 66.21875 
Q 28.65625 66.21875 22.328125 58.203125 
Q 16.015625 50.203125 16.015625 36.375 
Q 16.015625 22.609375 22.328125 14.59375 
Q 28.65625 6.59375 39.40625 6.59375 
Q 50.140625 6.59375 56.421875 14.59375 
Q 62.703125 22.609375 62.703125 36.375 
Q 62.703125 50.203125 56.421875 58.203125 
Q 50.140625 66.21875 39.40625 66.21875 
z
M 39.40625 74.21875 
Q 54.734375 74.21875 63.90625 63.9375 
Q 73.09375 53.65625 73.09375 36.375 
Q 73.09375 19.140625 63.90625 8.859375 
Q 54.734375 -1.421875 39.40625 -1.421875 
Q 24.03125 -1.421875 14.8125 8.828125 
Q 5.609375 19.09375 5.609375 36.375 
Q 5.609375 53.65625 14.8125 63.9375 
Q 24.03125 74.21875 39.40625 74.21875 
z
" id="DejaVuSans-79"/>
      <path d="M 2.984375 54.6875 
L 12.5 54.6875 
L 29.59375 8.796875 
L 46.6875 54.6875 
L 56.203125 54.6875 
L 35.6875 0 
L 23.484375 0 
z
" id="DejaVuSans-118"/>
      <path d="M 41.109375 46.296875 
Q 39.59375 47.171875 37.8125 47.578125 
Q 36.03125 48 33.890625 48 
Q 26.265625 48 22.1875 43.046875 
Q 18.109375 38.09375 18.109375 28.8125 
L 18.109375 0 
L 9.078125 0 
L 9.078125 54.6875 
L 18.109375 54.6875 
L 18.109375 46.1875 
Q 20.953125 51.171875 25.484375 53.578125 
Q 30.03125 56 36.53125 56 
Q 37.453125 56 38.578125 55.875 
Q 39.703125 55.765625 41.0625 55.515625 
z
" id="DejaVuSans-114"/>
      <path d="M 34.28125 27.484375 
Q 23.390625 27.484375 19.1875 25 
Q 14.984375 22.515625 14.984375 16.5 
Q 14.984375 11.71875 18.140625 8.90625 
Q 21.296875 6.109375 26.703125 6.109375 
Q 34.1875 6.109375 38.703125 11.40625 
Q 43.21875 16.703125 43.21875 25.484375 
L 43.21875 27.484375 
z
M 52.203125 31.203125 
L 52.203125 0 
L 43.21875 0 
L 43.21875 8.296875 
Q 40.140625 3.328125 35.546875 0.953125 
Q 30.953125 -1.421875 24.3125 -1.421875 
Q 15.921875 -1.421875 10.953125 3.296875 
Q 6 8.015625 6 15.921875 
Q 6 25.140625 12.171875 29.828125 
Q 18.359375 34.515625 30.609375 34.515625 
L 43.21875 34.515625 
L 43.21875 35.40625 
Q 43.21875 41.609375 39.140625 45 
Q 35.0625 48.390625 27.6875 48.390625 
Q 23 48.390625 18.546875 47.265625 
Q 14.109375 46.140625 10.015625 43.890625 
L 10.015625 52.203125 
Q 14.9375 54.109375 19.578125 55.046875 
Q 24.21875 56 28.609375 56 
Q 40.484375 56 46.34375 49.84375 
Q 52.203125 43.703125 52.203125 31.203125 
z
" id="DejaVuSans-97"/>
      <path d="M 45.40625 46.390625 
L 45.40625 75.984375 
L 54.390625 75.984375 
L 54.390625 0 
L 45.40625 0 
L 45.40625 8.203125 
Q 42.578125 3.328125 38.25 0.953125 
Q 33.9375 -1.421875 27.875 -1.421875 
Q 17.96875 -1.421875 11.734375 6.484375 
Q 5.515625 14.40625 5.515625 27.296875 
Q 5.515625 40.1875 11.734375 48.09375 
Q 17.96875 56 27.875 56 
Q 33.9375 56 38.25 53.625 
Q 42.578125 51.265625 45.40625 46.390625 
z
M 14.796875 27.296875 
Q 14.796875 17.390625 18.875 11.75 
Q 22.953125 6.109375 30.078125 6.109375 
Q 37.203125 6.109375 41.296875 11.75 
Q 45.40625 17.390625 45.40625 27.296875 
Q 45.40625 37.203125 41.296875 42.84375 
Q 37.203125 48.484375 30.078125 48.484375 
Q 22.953125 48.484375 18.875 42.84375 
Q 14.796875 37.203125 14.796875 27.296875 
z
" id="DejaVuSans-100"/>
      <path d="M 31 75.875 
Q 24.46875 64.65625 21.28125 53.65625 
Q 18.109375 42.671875 18.109375 31.390625 
Q 18.109375 20.125 21.3125 9.0625 
Q 24.515625 -2 31 -13.1875 
L 23.1875 -13.1875 
Q 15.875 -1.703125 12.234375 9.375 
Q 8.59375 20.453125 8.59375 31.390625 
Q 8.59375 42.28125 12.203125 53.3125 
Q 15.828125 64.359375 23.1875 75.875 
z
" id="DejaVuSans-40"/>
      <path d="M 44.28125 53.078125 
L 44.28125 44.578125 
Q 40.484375 46.53125 36.375 47.5 
Q 32.28125 48.484375 27.875 48.484375 
Q 21.1875 48.484375 17.84375 46.4375 
Q 14.5 44.390625 14.5 40.28125 
Q 14.5 37.15625 16.890625 35.375 
Q 19.28125 33.59375 26.515625 31.984375 
L 29.59375 31.296875 
Q 39.15625 29.25 43.1875 25.515625 
Q 47.21875 21.78125 47.21875 15.09375 
Q 47.21875 7.46875 41.1875 3.015625 
Q 35.15625 -1.421875 24.609375 -1.421875 
Q 20.21875 -1.421875 15.453125 -0.5625 
Q 10.6875 0.296875 5.421875 2 
L 5.421875 11.28125 
Q 10.40625 8.6875 15.234375 7.390625 
Q 20.0625 6.109375 24.8125 6.109375 
Q 31.15625 6.109375 34.5625 8.28125 
Q 37.984375 10.453125 37.984375 14.40625 
Q 37.984375 18.0625 35.515625 20.015625 
Q 33.0625 21.96875 24.703125 23.78125 
L 21.578125 24.515625 
Q 13.234375 26.265625 9.515625 29.90625 
Q 5.8125 33.546875 5.8125 39.890625 
Q 5.8125 47.609375 11.28125 51.796875 
Q 16.75 56 26.8125 56 
Q 31.78125 56 36.171875 55.265625 
Q 40.578125 54.546875 44.28125 53.078125 
z
" id="DejaVuSans-115"/>
      <path d="M 8.015625 75.875 
L 15.828125 75.875 
Q 23.140625 64.359375 26.78125 53.3125 
Q 30.421875 42.28125 30.421875 31.390625 
Q 30.421875 20.453125 26.78125 9.375 
Q 23.140625 -1.703125 15.828125 -13.1875 
L 8.015625 -13.1875 
Q 14.5 -2 17.703125 9.0625 
Q 20.90625 20.125 20.90625 31.390625 
Q 20.90625 42.671875 17.703125 53.65625 
Q 14.5 64.65625 8.015625 75.875 
z
" id="DejaVuSans-41"/>
     </defs>
     <g style="fill:#262626;" transform="translate(26.61175 255.864875)rotate(-90)scale(0.144 -0.144)">
      <use xlink:href="#DejaVuSans-79"/>
      <use x="78.710938" xlink:href="#DejaVuSans-118"/>
      <use x="137.890625" xlink:href="#DejaVuSans-101"/>
      <use x="199.414062" xlink:href="#DejaVuSans-114"/>
      <use x="240.511719" xlink:href="#DejaVuSans-104"/>
      <use x="303.890625" xlink:href="#DejaVuSans-101"/>
      <use x="365.414062" xlink:href="#DejaVuSans-97"/>
      <use x="426.693359" xlink:href="#DejaVuSans-100"/>
      <use x="490.169922" xlink:href="#DejaVuSans-32"/>
      <use x="521.957031" xlink:href="#DejaVuSans-40"/>
      <use x="560.970703" xlink:href="#DejaVuSans-110"/>
      <use x="624.349609" xlink:href="#DejaVuSans-115"/>
      <use x="676.449219" xlink:href="#DejaVuSans-41"/>
     </g>
    </g>
   </g>
   <g id="LineCollection_1">
    <path clip-path="url(#p2353e3e344)" d="M 96.072273 353.067852 
L 96.072273 352.464664 
" style="fill:none;stroke:#4c72b0;stroke-width:3;"/>
    <path clip-path="url(#p2353e3e344)" d="M 160.450657 341.063345 
L 160.450657 341.0161 
" style="fill:none;stroke:#4c72b0;stroke-width:3;"/>
    <path clip-path="url(#p2353e3e344)" d="M 224.82904 324.169809 
L 224.82904 319.963595 
" style="fill:none;stroke:#4c72b0;stroke-width:3;"/>
    <path clip-path="url(#p2353e3e344)" d="M 289.207424 311.448544 
L 289.207424 297.623592 
" style="fill:none;stroke:#4c72b0;stroke-width:3;"/>
    <path clip-path="url(#p2353e3e344)" d="M 353.585808 265.360656 
L 353.585808 263.442145 
" style="fill:none;stroke:#4c72b0;stroke-width:3;"/>
    <path clip-path="url(#p2353e3e344)" d="M 417.964192 256.922325 
L 417.964192 254.360644 
" style="fill:none;stroke:#4c72b0;stroke-width:3;"/>
    <path clip-path="url(#p2353e3e344)" d="M 482.342576 226.715431 
L 482.342576 200.854014 
" style="fill:none;stroke:#4c72b0;stroke-width:3;"/>
    <path clip-path="url(#p2353e3e344)" d="M 546.72096 204.871924 
L 546.72096 179.284138 
" style="fill:none;stroke:#4c72b0;stroke-width:3;"/>
    <path clip-path="url(#p2353e3e344)" d="M 611.099343 181.578395 
L 611.099343 141.888363 
" style="fill:none;stroke:#4c72b0;stroke-width:3;"/>
    <path clip-path="url(#p2353e3e344)" d="M 675.477727 162.678294 
L 675.477727 151.475652 
" style="fill:none;stroke:#4c72b0;stroke-width:3;"/>
   </g>
   <g id="LineCollection_2">
    <path clip-path="url(#p2353e3e344)" d="M 96.072273 340.173799 
L 96.072273 338.893911 
" style="fill:none;stroke:#dd8452;stroke-width:3;"/>
    <path clip-path="url(#p2353e3e344)" d="M 160.450657 321.83024 
L 160.450657 318.735565 
" style="fill:none;stroke:#dd8452;stroke-width:3;"/>
    <path clip-path="url(#p2353e3e344)" d="M 224.82904 290.57545 
L 224.82904 288.701505 
" style="fill:none;stroke:#dd8452;stroke-width:3;"/>
    <path clip-path="url(#p2353e3e344)" d="M 289.207424 268.429318 
L 289.207424 244.5518 
" style="fill:none;stroke:#dd8452;stroke-width:3;"/>
    <path clip-path="url(#p2353e3e344)" d="M 353.585808 245.260649 
L 353.585808 231.200697 
" style="fill:none;stroke:#dd8452;stroke-width:3;"/>
    <path clip-path="url(#p2353e3e344)" d="M 417.964192 238.519779 
L 417.964192 226.166737 
" style="fill:none;stroke:#dd8452;stroke-width:3;"/>
    <path clip-path="url(#p2353e3e344)" d="M 482.342576 218.655445 
L 482.342576 214.534076 
" style="fill:none;stroke:#dd8452;stroke-width:3;"/>
    <path clip-path="url(#p2353e3e344)" d="M 546.72096 193.318312 
L 546.72096 180.302871 
" style="fill:none;stroke:#dd8452;stroke-width:3;"/>
    <path clip-path="url(#p2353e3e344)" d="M 611.099343 152.59823 
L 611.099343 133.391756 
" style="fill:none;stroke:#dd8452;stroke-width:3;"/>
    <path clip-path="url(#p2353e3e344)" d="M 675.477727 134.87275 
L 675.477727 102.618866 
" style="fill:none;stroke:#dd8452;stroke-width:3;"/>
   </g>
   <g id="LineCollection_3">
    <path clip-path="url(#p2353e3e344)" d="M 96.072273 338.17962 
L 96.072273 334.850186 
" style="fill:none;stroke:#55a868;stroke-width:3;"/>
    <path clip-path="url(#p2353e3e344)" d="M 160.450657 316.002189 
L 160.450657 306.480566 
" style="fill:none;stroke:#55a868;stroke-width:3;"/>
    <path clip-path="url(#p2353e3e344)" d="M 224.82904 274.912187 
L 224.82904 266.420487 
" style="fill:none;stroke:#55a868;stroke-width:3;"/>
    <path clip-path="url(#p2353e3e344)" d="M 289.207424 252.281084 
L 289.207424 217.211854 
" style="fill:none;stroke:#55a868;stroke-width:3;"/>
    <path clip-path="url(#p2353e3e344)" d="M 353.585808 240.165562 
L 353.585808 236.410191 
" style="fill:none;stroke:#55a868;stroke-width:3;"/>
    <path clip-path="url(#p2353e3e344)" d="M 417.964192 202.890002 
L 417.964192 181.582163 
" style="fill:none;stroke:#55a868;stroke-width:3;"/>
    <path clip-path="url(#p2353e3e344)" d="M 482.342576 183.192548 
L 482.342576 173.008593 
" style="fill:none;stroke:#55a868;stroke-width:3;"/>
    <path clip-path="url(#p2353e3e344)" d="M 546.72096 166.716327 
L 546.72096 164.517226 
" style="fill:none;stroke:#55a868;stroke-width:3;"/>
    <path clip-path="url(#p2353e3e344)" d="M 611.099343 133.960566 
L 611.099343 126.675534 
" style="fill:none;stroke:#55a868;stroke-width:3;"/>
    <path clip-path="url(#p2353e3e344)" d="M 675.477727 79.731346 
L 675.477727 52.51156 
" style="fill:none;stroke:#55a868;stroke-width:3;"/>
   </g>
   <g id="LineCollection_4">
    <path clip-path="url(#p2353e3e344)" d="M 96.072273 333.598448 
L 96.072273 330.784564 
" style="fill:none;stroke:#c44e52;stroke-width:3;"/>
    <path clip-path="url(#p2353e3e344)" d="M 160.450657 310.429361 
L 160.450657 308.322644 
" style="fill:none;stroke:#c44e52;stroke-width:3;"/>
    <path clip-path="url(#p2353e3e344)" d="M 224.82904 273.704026 
L 224.82904 255.33561 
" style="fill:none;stroke:#c44e52;stroke-width:3;"/>
    <path clip-path="url(#p2353e3e344)" d="M 289.207424 243.743768 
L 289.207424 238.963973 
" style="fill:none;stroke:#c44e52;stroke-width:3;"/>
    <path clip-path="url(#p2353e3e344)" d="M 353.585808 221.854516 
L 353.585808 209.615627 
" style="fill:none;stroke:#c44e52;stroke-width:3;"/>
    <path clip-path="url(#p2353e3e344)" d="M 417.964192 201.251042 
L 417.964192 197.836291 
" style="fill:none;stroke:#c44e52;stroke-width:3;"/>
    <path clip-path="url(#p2353e3e344)" d="M 482.342576 170.692255 
L 482.342576 158.994127 
" style="fill:none;stroke:#c44e52;stroke-width:3;"/>
    <path clip-path="url(#p2353e3e344)" d="M 546.72096 138.001515 
L 546.72096 130.301133 
" style="fill:none;stroke:#c44e52;stroke-width:3;"/>
    <path clip-path="url(#p2353e3e344)" d="M 611.099343 105.075343 
L 611.099343 97.793491 
" style="fill:none;stroke:#c44e52;stroke-width:3;"/>
    <path clip-path="url(#p2353e3e344)" d="M 675.477727 71.970971 
L 675.477727 48.17 
" style="fill:none;stroke:#c44e52;stroke-width:3;"/>
   </g>
   <g id="line2d_11">
    <path clip-path="url(#p2353e3e344)" d="M 96.072273 360.53 
L 160.450657 340.978156 
L 224.82904 321.426312 
L 289.207424 301.874468 
L 353.585808 282.322624 
L 417.964192 262.77078 
L 482.342576 243.218936 
L 546.72096 223.667092 
L 611.099343 204.115248 
L 675.477727 184.563404 
" style="fill:none;stroke:#4c72b0;stroke-linecap:round;stroke-width:1.2;"/>
   </g>
   <g id="line2d_12">
    <path clip-path="url(#p2353e3e344)" d="M 96.072273 338.474202 
L 160.450657 316.594188 
L 224.82904 294.714173 
L 289.207424 272.834158 
L 353.585808 250.954144 
L 417.964192 229.074129 
L 482.342576 207.194115 
L 546.72096 185.3141 
L 611.099343 163.434086 
L 675.477727 141.554071 
" style="fill:none;stroke:#dd8452;stroke-linecap:round;stroke-width:1.2;"/>
   </g>
   <g id="line2d_13">
    <path clip-path="url(#p2353e3e344)" d="M 96.072273 335.266109 
L 160.450657 310.744768 
L 224.82904 286.223428 
L 289.207424 261.702088 
L 353.585808 237.180747 
L 417.964192 212.659407 
L 482.342576 188.138067 
L 546.72096 163.616726 
L 611.099343 139.095386 
L 675.477727 114.574045 
" style="fill:none;stroke:#55a868;stroke-linecap:round;stroke-width:1.2;"/>
   </g>
   <g id="line2d_14">
    <path clip-path="url(#p2353e3e344)" d="M 96.072273 335.241062 
L 160.450657 306.900228 
L 224.82904 278.559394 
L 289.207424 250.21856 
L 353.585808 221.877726 
L 417.964192 193.536892 
L 482.342576 165.196058 
L 546.72096 136.855224 
L 611.099343 108.51439 
L 675.477727 80.173556 
" style="fill:none;stroke:#c44e52;stroke-linecap:round;stroke-width:1.2;"/>
   </g>
   <g id="line2d_15">
    <defs>
     <path d="M 0 1.2 
C 0.318244 1.2 0.623496 1.07356 0.848528 0.848528 
C 1.07356 0.623496 1.2 0.318244 1.2 0 
C 1.2 -0.318244 1.07356 -0.623496 0.848528 -0.848528 
C 0.623496 -1.07356 0.318244 -1.2 0 -1.2 
C -0.318244 -1.2 -0.623496 -1.07356 -0.848528 -0.848528 
C -1.07356 -0.623496 -1.2 -0.318244 -1.2 0 
C -1.2 0.318244 -1.07356 0.623496 -0.848528 0.848528 
C -0.623496 1.07356 -0.318244 1.2 0 1.2 
z
" id="m4ee9b89b37" style="stroke:#4c72b0;"/>
    </defs>
    <g clip-path="url(#p2353e3e344)">
     <use style="fill:#4c72b0;stroke:#4c72b0;" x="96.072273" xlink:href="#m4ee9b89b37" y="352.766258"/>
     <use style="fill:#4c72b0;stroke:#4c72b0;" x="160.450657" xlink:href="#m4ee9b89b37" y="341.039722"/>
     <use style="fill:#4c72b0;stroke:#4c72b0;" x="224.82904" xlink:href="#m4ee9b89b37" y="322.066702"/>
     <use style="fill:#4c72b0;stroke:#4c72b0;" x="289.207424" xlink:href="#m4ee9b89b37" y="304.536068"/>
     <use style="fill:#4c72b0;stroke:#4c72b0;" x="353.585808" xlink:href="#m4ee9b89b37" y="264.401401"/>
     <use style="fill:#4c72b0;stroke:#4c72b0;" x="417.964192" xlink:href="#m4ee9b89b37" y="255.641485"/>
     <use style="fill:#4c72b0;stroke:#4c72b0;" x="482.342576" xlink:href="#m4ee9b89b37" y="213.784723"/>
     <use style="fill:#4c72b0;stroke:#4c72b0;" x="546.72096" xlink:href="#m4ee9b89b37" y="192.078031"/>
     <use style="fill:#4c72b0;stroke:#4c72b0;" x="611.099343" xlink:href="#m4ee9b89b37" y="161.733379"/>
     <use style="fill:#4c72b0;stroke:#4c72b0;" x="675.477727" xlink:href="#m4ee9b89b37" y="157.076973"/>
    </g>
   </g>
   <g id="line2d_16">
    <defs>
     <path d="M 0 1.2 
C 0.318244 1.2 0.623496 1.07356 0.848528 0.848528 
C 1.07356 0.623496 1.2 0.318244 1.2 0 
C 1.2 -0.318244 1.07356 -0.623496 0.848528 -0.848528 
C 0.623496 -1.07356 0.318244 -1.2 0 -1.2 
C -0.318244 -1.2 -0.623496 -1.07356 -0.848528 -0.848528 
C -1.07356 -0.623496 -1.2 -0.318244 -1.2 0 
C -1.2 0.318244 -1.07356 0.623496 -0.848528 0.848528 
C -0.623496 1.07356 -0.318244 1.2 0 1.2 
z
" id="md8f236f1c7" style="stroke:#dd8452;"/>
    </defs>
    <g clip-path="url(#p2353e3e344)">
     <use style="fill:#dd8452;stroke:#dd8452;" x="96.072273" xlink:href="#md8f236f1c7" y="339.533855"/>
     <use style="fill:#dd8452;stroke:#dd8452;" x="160.450657" xlink:href="#md8f236f1c7" y="320.282903"/>
     <use style="fill:#dd8452;stroke:#dd8452;" x="224.82904" xlink:href="#md8f236f1c7" y="289.638477"/>
     <use style="fill:#dd8452;stroke:#dd8452;" x="289.207424" xlink:href="#md8f236f1c7" y="256.490559"/>
     <use style="fill:#dd8452;stroke:#dd8452;" x="353.585808" xlink:href="#md8f236f1c7" y="238.230673"/>
     <use style="fill:#dd8452;stroke:#dd8452;" x="417.964192" xlink:href="#md8f236f1c7" y="232.343258"/>
     <use style="fill:#dd8452;stroke:#dd8452;" x="482.342576" xlink:href="#md8f236f1c7" y="216.594761"/>
     <use style="fill:#dd8452;stroke:#dd8452;" x="546.72096" xlink:href="#md8f236f1c7" y="186.810592"/>
     <use style="fill:#dd8452;stroke:#dd8452;" x="611.099343" xlink:href="#md8f236f1c7" y="142.994993"/>
     <use style="fill:#dd8452;stroke:#dd8452;" x="675.477727" xlink:href="#md8f236f1c7" y="118.745808"/>
    </g>
   </g>
   <g id="line2d_17">
    <defs>
     <path d="M 0 1.2 
C 0.318244 1.2 0.623496 1.07356 0.848528 0.848528 
C 1.07356 0.623496 1.2 0.318244 1.2 0 
C 1.2 -0.318244 1.07356 -0.623496 0.848528 -0.848528 
C 0.623496 -1.07356 0.318244 -1.2 0 -1.2 
C -0.318244 -1.2 -0.623496 -1.07356 -0.848528 -0.848528 
C -1.07356 -0.623496 -1.2 -0.318244 -1.2 0 
C -1.2 0.318244 -1.07356 0.623496 -0.848528 0.848528 
C -0.623496 1.07356 -0.318244 1.2 0 1.2 
z
" id="mdecd2c5ccd" style="stroke:#55a868;"/>
    </defs>
    <g clip-path="url(#p2353e3e344)">
     <use style="fill:#55a868;stroke:#55a868;" x="96.072273" xlink:href="#mdecd2c5ccd" y="336.514903"/>
     <use style="fill:#55a868;stroke:#55a868;" x="160.450657" xlink:href="#mdecd2c5ccd" y="311.241378"/>
     <use style="fill:#55a868;stroke:#55a868;" x="224.82904" xlink:href="#mdecd2c5ccd" y="270.666337"/>
     <use style="fill:#55a868;stroke:#55a868;" x="289.207424" xlink:href="#mdecd2c5ccd" y="234.746469"/>
     <use style="fill:#55a868;stroke:#55a868;" x="353.585808" xlink:href="#mdecd2c5ccd" y="238.287876"/>
     <use style="fill:#55a868;stroke:#55a868;" x="417.964192" xlink:href="#mdecd2c5ccd" y="192.236083"/>
     <use style="fill:#55a868;stroke:#55a868;" x="482.342576" xlink:href="#mdecd2c5ccd" y="178.10057"/>
     <use style="fill:#55a868;stroke:#55a868;" x="546.72096" xlink:href="#mdecd2c5ccd" y="165.616777"/>
     <use style="fill:#55a868;stroke:#55a868;" x="611.099343" xlink:href="#mdecd2c5ccd" y="130.31805"/>
     <use style="fill:#55a868;stroke:#55a868;" x="675.477727" xlink:href="#mdecd2c5ccd" y="66.121453"/>
    </g>
   </g>
   <g id="line2d_18">
    <defs>
     <path d="M 0 1.2 
C 0.318244 1.2 0.623496 1.07356 0.848528 0.848528 
C 1.07356 0.623496 1.2 0.318244 1.2 0 
C 1.2 -0.318244 1.07356 -0.623496 0.848528 -0.848528 
C 0.623496 -1.07356 0.318244 -1.2 0 -1.2 
C -0.318244 -1.2 -0.623496 -1.07356 -0.848528 -0.848528 
C -1.07356 -0.623496 -1.2 -0.318244 -1.2 0 
C -1.2 0.318244 -1.07356 0.623496 -0.848528 0.848528 
C -0.623496 1.07356 -0.318244 1.2 0 1.2 
z
" id="mab68c0a02a" style="stroke:#c44e52;"/>
    </defs>
    <g clip-path="url(#p2353e3e344)">
     <use style="fill:#c44e52;stroke:#c44e52;" x="96.072273" xlink:href="#mab68c0a02a" y="332.191506"/>
     <use style="fill:#c44e52;stroke:#c44e52;" x="160.450657" xlink:href="#mab68c0a02a" y="309.376002"/>
     <use style="fill:#c44e52;stroke:#c44e52;" x="224.82904" xlink:href="#mab68c0a02a" y="264.519818"/>
     <use style="fill:#c44e52;stroke:#c44e52;" x="289.207424" xlink:href="#mab68c0a02a" y="241.353871"/>
     <use style="fill:#c44e52;stroke:#c44e52;" x="353.585808" xlink:href="#mab68c0a02a" y="215.735072"/>
     <use style="fill:#c44e52;stroke:#c44e52;" x="417.964192" xlink:href="#mab68c0a02a" y="199.543666"/>
     <use style="fill:#c44e52;stroke:#c44e52;" x="482.342576" xlink:href="#mab68c0a02a" y="164.843191"/>
     <use style="fill:#c44e52;stroke:#c44e52;" x="546.72096" xlink:href="#mab68c0a02a" y="134.151324"/>
     <use style="fill:#c44e52;stroke:#c44e52;" x="611.099343" xlink:href="#mab68c0a02a" y="101.434417"/>
     <use style="fill:#c44e52;stroke:#c44e52;" x="675.477727" xlink:href="#mab68c0a02a" y="60.070486"/>
    </g>
   </g>
   <g id="patch_3">
    <path d="M 67.102 376.148 
L 67.102 32.552 
" style="fill:none;stroke:#ffffff;stroke-linecap:square;stroke-linejoin:miter;"/>
   </g>
   <g id="patch_4">
    <path d="M 704.448 376.148 
L 704.448 32.552 
" style="fill:none;stroke:#ffffff;stroke-linecap:square;stroke-linejoin:miter;"/>
   </g>
   <g id="patch_5">
    <path d="M 67.102 376.148 
L 704.448 376.148 
" style="fill:none;stroke:#ffffff;stroke-linecap:square;stroke-linejoin:miter;"/>
   </g>
   <g id="patch_6">
    <path d="M 67.102 32.552 
L 704.448 32.552 
" style="fill:none;stroke:#ffffff;stroke-linecap:square;stroke-linejoin:miter;"/>
   </g>
   <g id="text_13">
    <!-- Function Call Overhead in Python 3.8.3 -->
    <defs>
     <path d="M 64.40625 67.28125 
L 64.40625 56.890625 
Q 59.421875 61.53125 53.78125 63.8125 
Q 48.140625 66.109375 41.796875 66.109375 
Q 29.296875 66.109375 22.65625 58.46875 
Q 16.015625 50.828125 16.015625 36.375 
Q 16.015625 21.96875 22.65625 14.328125 
Q 29.296875 6.6875 41.796875 6.6875 
Q 48.140625 6.6875 53.78125 8.984375 
Q 59.421875 11.28125 64.40625 15.921875 
L 64.40625 5.609375 
Q 59.234375 2.09375 53.4375 0.328125 
Q 47.65625 -1.421875 41.21875 -1.421875 
Q 24.65625 -1.421875 15.125 8.703125 
Q 5.609375 18.84375 5.609375 36.375 
Q 5.609375 53.953125 15.125 64.078125 
Q 24.65625 74.21875 41.21875 74.21875 
Q 47.75 74.21875 53.53125 72.484375 
Q 59.328125 70.75 64.40625 67.28125 
z
" id="DejaVuSans-67"/>
     <path d="M 9.421875 75.984375 
L 18.40625 75.984375 
L 18.40625 0 
L 9.421875 0 
z
" id="DejaVuSans-108"/>
     <path d="M 19.671875 64.796875 
L 19.671875 37.40625 
L 32.078125 37.40625 
Q 38.96875 37.40625 42.71875 40.96875 
Q 46.484375 44.53125 46.484375 51.125 
Q 46.484375 57.671875 42.71875 61.234375 
Q 38.96875 64.796875 32.078125 64.796875 
z
M 9.8125 72.90625 
L 32.078125 72.90625 
Q 44.34375 72.90625 50.609375 67.359375 
Q 56.890625 61.8125 56.890625 51.125 
Q 56.890625 40.328125 50.609375 34.8125 
Q 44.34375 29.296875 32.078125 29.296875 
L 19.671875 29.296875 
L 19.671875 0 
L 9.8125 0 
z
" id="DejaVuSans-80"/>
     <path d="M 32.171875 -5.078125 
Q 28.375 -14.84375 24.75 -17.8125 
Q 21.140625 -20.796875 15.09375 -20.796875 
L 7.90625 -20.796875 
L 7.90625 -13.28125 
L 13.1875 -13.28125 
Q 16.890625 -13.28125 18.9375 -11.515625 
Q 21 -9.765625 23.484375 -3.21875 
L 25.09375 0.875 
L 2.984375 54.6875 
L 12.5 54.6875 
L 29.59375 11.921875 
L 46.6875 54.6875 
L 56.203125 54.6875 
z
" id="DejaVuSans-121"/>
     <path d="M 40.578125 39.3125 
Q 47.65625 37.796875 51.625 33 
Q 55.609375 28.21875 55.609375 21.1875 
Q 55.609375 10.40625 48.1875 4.484375 
Q 40.765625 -1.421875 27.09375 -1.421875 
Q 22.515625 -1.421875 17.65625 -0.515625 
Q 12.796875 0.390625 7.625 2.203125 
L 7.625 11.71875 
Q 11.71875 9.328125 16.59375 8.109375 
Q 21.484375 6.890625 26.8125 6.890625 
Q 36.078125 6.890625 40.9375 10.546875 
Q 45.796875 14.203125 45.796875 21.1875 
Q 45.796875 27.640625 41.28125 31.265625 
Q 36.765625 34.90625 28.71875 34.90625 
L 20.21875 34.90625 
L 20.21875 43.015625 
L 29.109375 43.015625 
Q 36.375 43.015625 40.234375 45.921875 
Q 44.09375 48.828125 44.09375 54.296875 
Q 44.09375 59.90625 40.109375 62.90625 
Q 36.140625 65.921875 28.71875 65.921875 
Q 24.65625 65.921875 20.015625 65.03125 
Q 15.375 64.15625 9.8125 62.3125 
L 9.8125 71.09375 
Q 15.4375 72.65625 20.34375 73.4375 
Q 25.25 74.21875 29.59375 74.21875 
Q 40.828125 74.21875 47.359375 69.109375 
Q 53.90625 64.015625 53.90625 55.328125 
Q 53.90625 49.265625 50.4375 45.09375 
Q 46.96875 40.921875 40.578125 39.3125 
z
" id="DejaVuSans-51"/>
     <path d="M 10.6875 12.40625 
L 21 12.40625 
L 21 0 
L 10.6875 0 
z
" id="DejaVuSans-46"/>
    </defs>
    <g style="fill:#262626;" transform="translate(244.74725 26.552)scale(0.144 -0.144)">
     <use xlink:href="#DejaVuSans-70"/>
     <use x="57.441406" xlink:href="#DejaVuSans-117"/>
     <use x="120.820312" xlink:href="#DejaVuSans-110"/>
     <use x="184.199219" xlink:href="#DejaVuSans-99"/>
     <use x="239.179688" xlink:href="#DejaVuSans-116"/>
     <use x="278.388672" xlink:href="#DejaVuSans-105"/>
     <use x="306.171875" xlink:href="#DejaVuSans-111"/>
     <use x="367.353516" xlink:href="#DejaVuSans-110"/>
     <use x="430.732422" xlink:href="#DejaVuSans-32"/>
     <use x="462.519531" xlink:href="#DejaVuSans-67"/>
     <use x="532.34375" xlink:href="#DejaVuSans-97"/>
     <use x="593.623047" xlink:href="#DejaVuSans-108"/>
     <use x="621.40625" xlink:href="#DejaVuSans-108"/>
     <use x="649.189453" xlink:href="#DejaVuSans-32"/>
     <use x="680.976562" xlink:href="#DejaVuSans-79"/>
     <use x="759.6875" xlink:href="#DejaVuSans-118"/>
     <use x="818.867188" xlink:href="#DejaVuSans-101"/>
     <use x="880.390625" xlink:href="#DejaVuSans-114"/>
     <use x="921.488281" xlink:href="#DejaVuSans-104"/>
     <use x="984.867188" xlink:href="#DejaVuSans-101"/>
     <use x="1046.390625" xlink:href="#DejaVuSans-97"/>
     <use x="1107.669922" xlink:href="#DejaVuSans-100"/>
     <use x="1171.146484" xlink:href="#DejaVuSans-32"/>
     <use x="1202.933594" xlink:href="#DejaVuSans-105"/>
     <use x="1230.716797" xlink:href="#DejaVuSans-110"/>
     <use x="1294.095703" xlink:href="#DejaVuSans-32"/>
     <use x="1325.882812" xlink:href="#DejaVuSans-80"/>
     <use x="1386.185547" xlink:href="#DejaVuSans-121"/>
     <use x="1445.365234" xlink:href="#DejaVuSans-116"/>
     <use x="1484.574219" xlink:href="#DejaVuSans-104"/>
     <use x="1547.953125" xlink:href="#DejaVuSans-111"/>
     <use x="1609.134766" xlink:href="#DejaVuSans-110"/>
     <use x="1672.513672" xlink:href="#DejaVuSans-32"/>
     <use x="1704.300781" xlink:href="#DejaVuSans-51"/>
     <use x="1767.923828" xlink:href="#DejaVuSans-46"/>
     <use x="1799.710938" xlink:href="#DejaVuSans-56"/>
     <use x="1863.333984" xlink:href="#DejaVuSans-46"/>
     <use x="1895.121094" xlink:href="#DejaVuSans-51"/>
    </g>
   </g>
   <g id="legend_1">
    <g id="patch_7">
     <path d="M 255.010437 122.312 
L 516.539562 122.312 
Q 519.179562 122.312 519.179562 119.672 
L 519.179562 41.792 
Q 519.179562 39.152 516.539562 39.152 
L 255.010437 39.152 
Q 252.370437 39.152 252.370437 41.792 
L 252.370437 119.672 
Q 252.370437 122.312 255.010437 122.312 
z
" style="fill:#eaeaf2;opacity:0.8;stroke:#cccccc;stroke-linejoin:miter;stroke-width:0.8;"/>
    </g>
    <g id="LineCollection_5">
     <path d="M 270.850437 56.499688 
L 270.850437 43.299688 
" style="fill:none;stroke:#4c72b0;stroke-width:3;"/>
    </g>
    <g id="line2d_19"/>
    <g id="line2d_20">
     <g>
      <use style="fill:#4c72b0;stroke:#4c72b0;" x="270.850437" xlink:href="#m4ee9b89b37" y="49.899688"/>
     </g>
    </g>
    <g id="text_14">
     <!-- Function No Arg | 52 +- 5 ns -->
     <defs>
      <path d="M 9.8125 72.90625 
L 23.09375 72.90625 
L 55.421875 11.921875 
L 55.421875 72.90625 
L 64.984375 72.90625 
L 64.984375 0 
L 51.703125 0 
L 19.390625 60.984375 
L 19.390625 0 
L 9.8125 0 
z
" id="DejaVuSans-78"/>
      <path d="M 34.1875 63.1875 
L 20.796875 26.90625 
L 47.609375 26.90625 
z
M 28.609375 72.90625 
L 39.796875 72.90625 
L 67.578125 0 
L 57.328125 0 
L 50.6875 18.703125 
L 17.828125 18.703125 
L 11.1875 0 
L 0.78125 0 
z
" id="DejaVuSans-65"/>
      <path d="M 45.40625 27.984375 
Q 45.40625 37.75 41.375 43.109375 
Q 37.359375 48.484375 30.078125 48.484375 
Q 22.859375 48.484375 18.828125 43.109375 
Q 14.796875 37.75 14.796875 27.984375 
Q 14.796875 18.265625 18.828125 12.890625 
Q 22.859375 7.515625 30.078125 7.515625 
Q 37.359375 7.515625 41.375 12.890625 
Q 45.40625 18.265625 45.40625 27.984375 
z
M 54.390625 6.78125 
Q 54.390625 -7.171875 48.1875 -13.984375 
Q 42 -20.796875 29.203125 -20.796875 
Q 24.46875 -20.796875 20.265625 -20.09375 
Q 16.0625 -19.390625 12.109375 -17.921875 
L 12.109375 -9.1875 
Q 16.0625 -11.328125 19.921875 -12.34375 
Q 23.78125 -13.375 27.78125 -13.375 
Q 36.625 -13.375 41.015625 -8.765625 
Q 45.40625 -4.15625 45.40625 5.171875 
L 45.40625 9.625 
Q 42.625 4.78125 38.28125 2.390625 
Q 33.9375 0 27.875 0 
Q 17.828125 0 11.671875 7.65625 
Q 5.515625 15.328125 5.515625 27.984375 
Q 5.515625 40.671875 11.671875 48.328125 
Q 17.828125 56 27.875 56 
Q 33.9375 56 38.28125 53.609375 
Q 42.625 51.21875 45.40625 46.390625 
L 45.40625 54.6875 
L 54.390625 54.6875 
z
" id="DejaVuSans-103"/>
      <path d="M 21 76.421875 
L 21 -23.578125 
L 12.703125 -23.578125 
L 12.703125 76.421875 
z
" id="DejaVuSans-124"/>
      <path d="M 10.796875 72.90625 
L 49.515625 72.90625 
L 49.515625 64.59375 
L 19.828125 64.59375 
L 19.828125 46.734375 
Q 21.96875 47.46875 24.109375 47.828125 
Q 26.265625 48.1875 28.421875 48.1875 
Q 40.625 48.1875 47.75 41.5 
Q 54.890625 34.8125 54.890625 23.390625 
Q 54.890625 11.625 47.5625 5.09375 
Q 40.234375 -1.421875 26.90625 -1.421875 
Q 22.3125 -1.421875 17.546875 -0.640625 
Q 12.796875 0.140625 7.71875 1.703125 
L 7.71875 11.625 
Q 12.109375 9.234375 16.796875 8.0625 
Q 21.484375 6.890625 26.703125 6.890625 
Q 35.15625 6.890625 40.078125 11.328125 
Q 45.015625 15.765625 45.015625 23.390625 
Q 45.015625 31 40.078125 35.4375 
Q 35.15625 39.890625 26.703125 39.890625 
Q 22.75 39.890625 18.8125 39.015625 
Q 14.890625 38.140625 10.796875 36.28125 
z
" id="DejaVuSans-53"/>
      <path d="M 46 62.703125 
L 46 35.5 
L 73.1875 35.5 
L 73.1875 27.203125 
L 46 27.203125 
L 46 0 
L 37.796875 0 
L 37.796875 27.203125 
L 10.59375 27.203125 
L 10.59375 35.5 
L 37.796875 35.5 
L 37.796875 62.703125 
z
" id="DejaVuSans-43"/>
      <path d="M 4.890625 31.390625 
L 31.203125 31.390625 
L 31.203125 23.390625 
L 4.890625 23.390625 
z
" id="DejaVuSans-45"/>
     </defs>
     <g style="fill:#262626;" transform="translate(294.610437 54.519688)scale(0.132 -0.132)">
      <use xlink:href="#DejaVuSans-70"/>
      <use x="57.441406" xlink:href="#DejaVuSans-117"/>
      <use x="120.820312" xlink:href="#DejaVuSans-110"/>
      <use x="184.199219" xlink:href="#DejaVuSans-99"/>
      <use x="239.179688" xlink:href="#DejaVuSans-116"/>
      <use x="278.388672" xlink:href="#DejaVuSans-105"/>
      <use x="306.171875" xlink:href="#DejaVuSans-111"/>
      <use x="367.353516" xlink:href="#DejaVuSans-110"/>
      <use x="430.732422" xlink:href="#DejaVuSans-32"/>
      <use x="462.519531" xlink:href="#DejaVuSans-78"/>
      <use x="537.324219" xlink:href="#DejaVuSans-111"/>
      <use x="598.505859" xlink:href="#DejaVuSans-32"/>
      <use x="630.292969" xlink:href="#DejaVuSans-65"/>
      <use x="698.701172" xlink:href="#DejaVuSans-114"/>
      <use x="739.798828" xlink:href="#DejaVuSans-103"/>
      <use x="803.275391" xlink:href="#DejaVuSans-32"/>
      <use x="835.0625" xlink:href="#DejaVuSans-124"/>
      <use x="868.753906" xlink:href="#DejaVuSans-32"/>
      <use x="900.541016" xlink:href="#DejaVuSans-53"/>
      <use x="964.164062" xlink:href="#DejaVuSans-50"/>
      <use x="1027.787109" xlink:href="#DejaVuSans-32"/>
      <use x="1059.574219" xlink:href="#DejaVuSans-43"/>
      <use x="1143.363281" xlink:href="#DejaVuSans-45"/>
      <use x="1179.447266" xlink:href="#DejaVuSans-32"/>
      <use x="1211.234375" xlink:href="#DejaVuSans-53"/>
      <use x="1274.857422" xlink:href="#DejaVuSans-32"/>
      <use x="1306.644531" xlink:href="#DejaVuSans-110"/>
      <use x="1370.023438" xlink:href="#DejaVuSans-115"/>
     </g>
    </g>
    <g id="LineCollection_6">
     <path d="M 270.850437 76.299688 
L 270.850437 63.099688 
" style="fill:none;stroke:#dd8452;stroke-width:3;"/>
    </g>
    <g id="line2d_21"/>
    <g id="line2d_22">
     <g>
      <use style="fill:#dd8452;stroke:#dd8452;" x="270.850437" xlink:href="#md8f236f1c7" y="69.699688"/>
     </g>
    </g>
    <g id="text_15">
     <!-- Function 1 Arg | 59 +- 2 ns -->
     <defs>
      <path d="M 10.984375 1.515625 
L 10.984375 10.5 
Q 14.703125 8.734375 18.5 7.8125 
Q 22.3125 6.890625 25.984375 6.890625 
Q 35.75 6.890625 40.890625 13.453125 
Q 46.046875 20.015625 46.78125 33.40625 
Q 43.953125 29.203125 39.59375 26.953125 
Q 35.25 24.703125 29.984375 24.703125 
Q 19.046875 24.703125 12.671875 31.3125 
Q 6.296875 37.9375 6.296875 49.421875 
Q 6.296875 60.640625 12.9375 67.421875 
Q 19.578125 74.21875 30.609375 74.21875 
Q 43.265625 74.21875 49.921875 64.515625 
Q 56.59375 54.828125 56.59375 36.375 
Q 56.59375 19.140625 48.40625 8.859375 
Q 40.234375 -1.421875 26.421875 -1.421875 
Q 22.703125 -1.421875 18.890625 -0.6875 
Q 15.09375 0.046875 10.984375 1.515625 
z
M 30.609375 32.421875 
Q 37.25 32.421875 41.125 36.953125 
Q 45.015625 41.5 45.015625 49.421875 
Q 45.015625 57.28125 41.125 61.84375 
Q 37.25 66.40625 30.609375 66.40625 
Q 23.96875 66.40625 20.09375 61.84375 
Q 16.21875 57.28125 16.21875 49.421875 
Q 16.21875 41.5 20.09375 36.953125 
Q 23.96875 32.421875 30.609375 32.421875 
z
" id="DejaVuSans-57"/>
     </defs>
     <g style="fill:#262626;" transform="translate(294.610437 74.319688)scale(0.132 -0.132)">
      <use xlink:href="#DejaVuSans-70"/>
      <use x="57.441406" xlink:href="#DejaVuSans-117"/>
      <use x="120.820312" xlink:href="#DejaVuSans-110"/>
      <use x="184.199219" xlink:href="#DejaVuSans-99"/>
      <use x="239.179688" xlink:href="#DejaVuSans-116"/>
      <use x="278.388672" xlink:href="#DejaVuSans-105"/>
      <use x="306.171875" xlink:href="#DejaVuSans-111"/>
      <use x="367.353516" xlink:href="#DejaVuSans-110"/>
      <use x="430.732422" xlink:href="#DejaVuSans-32"/>
      <use x="462.519531" xlink:href="#DejaVuSans-49"/>
      <use x="526.142578" xlink:href="#DejaVuSans-32"/>
      <use x="557.929688" xlink:href="#DejaVuSans-65"/>
      <use x="626.337891" xlink:href="#DejaVuSans-114"/>
      <use x="667.435547" xlink:href="#DejaVuSans-103"/>
      <use x="730.912109" xlink:href="#DejaVuSans-32"/>
      <use x="762.699219" xlink:href="#DejaVuSans-124"/>
      <use x="796.390625" xlink:href="#DejaVuSans-32"/>
      <use x="828.177734" xlink:href="#DejaVuSans-53"/>
      <use x="891.800781" xlink:href="#DejaVuSans-57"/>
      <use x="955.423828" xlink:href="#DejaVuSans-32"/>
      <use x="987.210938" xlink:href="#DejaVuSans-43"/>
      <use x="1071" xlink:href="#DejaVuSans-45"/>
      <use x="1107.083984" xlink:href="#DejaVuSans-32"/>
      <use x="1138.871094" xlink:href="#DejaVuSans-50"/>
      <use x="1202.494141" xlink:href="#DejaVuSans-32"/>
      <use x="1234.28125" xlink:href="#DejaVuSans-110"/>
      <use x="1297.660156" xlink:href="#DejaVuSans-115"/>
     </g>
    </g>
    <g id="LineCollection_7">
     <path d="M 270.850437 96.099688 
L 270.850437 82.899688 
" style="fill:none;stroke:#55a868;stroke-width:3;"/>
    </g>
    <g id="line2d_23"/>
    <g id="line2d_24">
     <g>
      <use style="fill:#55a868;stroke:#55a868;" x="270.850437" xlink:href="#mdecd2c5ccd" y="89.499688"/>
     </g>
    </g>
    <g id="text_16">
     <!-- Class Method No Arg | 66 +- 2 ns -->
     <defs>
      <path d="M 9.8125 72.90625 
L 24.515625 72.90625 
L 43.109375 23.296875 
L 61.8125 72.90625 
L 76.515625 72.90625 
L 76.515625 0 
L 66.890625 0 
L 66.890625 64.015625 
L 48.09375 14.015625 
L 38.1875 14.015625 
L 19.390625 64.015625 
L 19.390625 0 
L 9.8125 0 
z
" id="DejaVuSans-77"/>
     </defs>
     <g style="fill:#262626;" transform="translate(294.610437 94.119688)scale(0.132 -0.132)">
      <use xlink:href="#DejaVuSans-67"/>
      <use x="69.824219" xlink:href="#DejaVuSans-108"/>
      <use x="97.607422" xlink:href="#DejaVuSans-97"/>
      <use x="158.886719" xlink:href="#DejaVuSans-115"/>
      <use x="210.986328" xlink:href="#DejaVuSans-115"/>
      <use x="263.085938" xlink:href="#DejaVuSans-32"/>
      <use x="294.873047" xlink:href="#DejaVuSans-77"/>
      <use x="381.152344" xlink:href="#DejaVuSans-101"/>
      <use x="442.675781" xlink:href="#DejaVuSans-116"/>
      <use x="481.884766" xlink:href="#DejaVuSans-104"/>
      <use x="545.263672" xlink:href="#DejaVuSans-111"/>
      <use x="606.445312" xlink:href="#DejaVuSans-100"/>
      <use x="669.921875" xlink:href="#DejaVuSans-32"/>
      <use x="701.708984" xlink:href="#DejaVuSans-78"/>
      <use x="776.513672" xlink:href="#DejaVuSans-111"/>
      <use x="837.695312" xlink:href="#DejaVuSans-32"/>
      <use x="869.482422" xlink:href="#DejaVuSans-65"/>
      <use x="937.890625" xlink:href="#DejaVuSans-114"/>
      <use x="978.988281" xlink:href="#DejaVuSans-103"/>
      <use x="1042.464844" xlink:href="#DejaVuSans-32"/>
      <use x="1074.251953" xlink:href="#DejaVuSans-124"/>
      <use x="1107.943359" xlink:href="#DejaVuSans-32"/>
      <use x="1139.730469" xlink:href="#DejaVuSans-54"/>
      <use x="1203.353516" xlink:href="#DejaVuSans-54"/>
      <use x="1266.976562" xlink:href="#DejaVuSans-32"/>
      <use x="1298.763672" xlink:href="#DejaVuSans-43"/>
      <use x="1382.552734" xlink:href="#DejaVuSans-45"/>
      <use x="1418.636719" xlink:href="#DejaVuSans-32"/>
      <use x="1450.423828" xlink:href="#DejaVuSans-50"/>
      <use x="1514.046875" xlink:href="#DejaVuSans-32"/>
      <use x="1545.833984" xlink:href="#DejaVuSans-110"/>
      <use x="1609.212891" xlink:href="#DejaVuSans-115"/>
     </g>
    </g>
    <g id="LineCollection_8">
     <path d="M 270.850437 115.899688 
L 270.850437 102.699688 
" style="fill:none;stroke:#c44e52;stroke-width:3;"/>
    </g>
    <g id="line2d_25"/>
    <g id="line2d_26">
     <g>
      <use style="fill:#c44e52;stroke:#c44e52;" x="270.850437" xlink:href="#mab68c0a02a" y="109.299688"/>
     </g>
    </g>
    <g id="text_17">
     <!-- Class Method 1 Arg | 76 +- 2 ns -->
     <defs>
      <path d="M 8.203125 72.90625 
L 55.078125 72.90625 
L 55.078125 68.703125 
L 28.609375 0 
L 18.3125 0 
L 43.21875 64.59375 
L 8.203125 64.59375 
z
" id="DejaVuSans-55"/>
     </defs>
     <g style="fill:#262626;" transform="translate(294.610437 113.919688)scale(0.132 -0.132)">
      <use xlink:href="#DejaVuSans-67"/>
      <use x="69.824219" xlink:href="#DejaVuSans-108"/>
      <use x="97.607422" xlink:href="#DejaVuSans-97"/>
      <use x="158.886719" xlink:href="#DejaVuSans-115"/>
      <use x="210.986328" xlink:href="#DejaVuSans-115"/>
      <use x="263.085938" xlink:href="#DejaVuSans-32"/>
      <use x="294.873047" xlink:href="#DejaVuSans-77"/>
      <use x="381.152344" xlink:href="#DejaVuSans-101"/>
      <use x="442.675781" xlink:href="#DejaVuSans-116"/>
      <use x="481.884766" xlink:href="#DejaVuSans-104"/>
      <use x="545.263672" xlink:href="#DejaVuSans-111"/>
      <use x="606.445312" xlink:href="#DejaVuSans-100"/>
      <use x="669.921875" xlink:href="#DejaVuSans-32"/>
      <use x="701.708984" xlink:href="#DejaVuSans-49"/>
      <use x="765.332031" xlink:href="#DejaVuSans-32"/>
      <use x="797.119141" xlink:href="#DejaVuSans-65"/>
      <use x="865.527344" xlink:href="#DejaVuSans-114"/>
      <use x="906.625" xlink:href="#DejaVuSans-103"/>
      <use x="970.101562" xlink:href="#DejaVuSans-32"/>
      <use x="1001.888672" xlink:href="#DejaVuSans-124"/>
      <use x="1035.580078" xlink:href="#DejaVuSans-32"/>
      <use x="1067.367188" xlink:href="#DejaVuSans-55"/>
      <use x="1130.990234" xlink:href="#DejaVuSans-54"/>
      <use x="1194.613281" xlink:href="#DejaVuSans-32"/>
      <use x="1226.400391" xlink:href="#DejaVuSans-43"/>
      <use x="1310.189453" xlink:href="#DejaVuSans-45"/>
      <use x="1346.273438" xlink:href="#DejaVuSans-32"/>
      <use x="1378.060547" xlink:href="#DejaVuSans-50"/>
      <use x="1441.683594" xlink:href="#DejaVuSans-32"/>
      <use x="1473.470703" xlink:href="#DejaVuSans-110"/>
      <use x="1536.849609" xlink:href="#DejaVuSans-115"/>
     </g>
    </g>
   </g>
  </g>
 </g>
 <defs>
  <clipPath id="p2353e3e344">
   <rect height="343.596" width="637.346" x="67.102" y="32.552"/>
  </clipPath>
 </defs>
</svg>
